<svg xmlns="http://www.w3.org/2000/svg" xmlns:xlink="http://www.w3.org/1999/xlink" width="2000" zoomAndPan="magnify" viewBox="0 0 1500 1499.999933" height="2000" preserveAspectRatio="xMidYMid meet" version="1.0"><defs><g/><clipPath id="a870c23c4b"><rect x="0" width="637" y="0" height="778"/></clipPath><clipPath id="5e62141ca0"><rect x="0" width="112" y="0" height="455"/></clipPath><clipPath id="dabc797209"><path d="M 969.878906 321.226562 L 1500 321.226562 L 1500 816.226562 L 969.878906 816.226562 Z M 969.878906 321.226562 " clip-rule="nonzero"/></clipPath><clipPath id="29e048c0ec"><path d="M 201 0.226562 L 315 0.226562 L 315 495.226562 L 201 495.226562 Z M 201 0.226562 " clip-rule="nonzero"/></clipPath><clipPath id="0796b2415a"><path d="M 0.878906 191 L 178 191 L 178 305 L 0.878906 305 Z M 0.878906 191 " clip-rule="nonzero"/></clipPath><clipPath id="f2c63c9e9a"><rect x="0" width="531" y="0" height="496"/></clipPath><clipPath id="8f682653b3"><path d="M 216 321.226562 L 330 321.226562 L 330 816.226562 L 216 816.226562 Z M 216 321.226562 " clip-rule="nonzero"/></clipPath><clipPath id="7bae6e156c"><path d="M 353 512 L 530.25 512 L 530.25 626 L 353 626 Z M 353 512 " clip-rule="nonzero"/></clipPath></defs><g transform="matrix(1, 0, 0, 1, 432, 494)"><g clip-path="url(#a870c23c4b)"><g fill="#9fff25" fill-opacity="1"><g transform="translate(1.115562, 582.60531)"><g><path d="M 317.296875 -320.40625 L 536.609375 -564.59375 L 571.59375 -564.59375 L 571.59375 0 L 458.828125 0 L 459.609375 -310.296875 L 317.296875 -160.984375 L 174.984375 -310.296875 L 174.984375 0 L 62.21875 0 L 62.21875 -564.59375 L 97.984375 -564.59375 Z M 317.296875 -320.40625 "/></g></g></g></g></g><g transform="matrix(1, 0, 0, 1, 1030, 736)"><g clip-path="url(#5e62141ca0)"><g fill="#9fff25" fill-opacity="1"><g transform="translate(0.437835, 340.401111)"><g><path d="M 50.046875 -70.078125 C 60.054688 -70.078125 68.019531 -67.570312 73.9375 -62.5625 C 79.851562 -57.5625 83.796875 -51.492188 85.765625 -44.359375 C 87.742188 -37.234375 87.671875 -30.03125 85.546875 -22.75 C 83.421875 -15.46875 79.398438 -9.320312 73.484375 -4.3125 C 67.566406 0.6875 59.753906 3.1875 50.046875 3.1875 C 40.347656 3.1875 32.539062 0.6875 26.625 -4.3125 C 20.707031 -9.320312 16.757812 -15.390625 14.78125 -22.515625 C 12.8125 -29.648438 12.8125 -36.859375 14.78125 -44.140625 C 16.757812 -51.421875 20.707031 -57.5625 26.625 -62.5625 C 32.539062 -67.570312 40.347656 -70.078125 50.046875 -70.078125 Z M 50.046875 -70.078125 "/></g></g></g></g></g><g clip-path="url(#dabc797209)"><g transform="matrix(1, 0, 0, 1, 969, 321)"><g clip-path="url(#f2c63c9e9a)"><path fill="#9fff25" d="M 392.441406 446.382812 C 423.664062 446.382812 448.976562 421.066406 448.976562 389.839844 L 448.976562 105.621094 C 448.976562 74.394531 423.664062 49.078125 392.441406 49.078125 C 361.210938 49.078125 335.898438 74.394531 335.898438 105.621094 L 335.898438 389.839844 C 335.898438 421.066406 361.210938 446.382812 392.441406 446.382812 " fill-opacity="1" fill-rule="nonzero"/><g clip-path="url(#29e048c0ec)"><path fill="#9fff25" d="M 257.683594 495.28125 C 288.902344 495.28125 314.21875 469.96875 314.21875 438.738281 L 314.21875 56.722656 C 314.21875 25.492188 288.902344 0.179688 257.683594 0.179688 C 226.453125 0.179688 201.140625 25.492188 201.140625 56.722656 L 201.140625 438.738281 C 201.140625 469.96875 226.453125 495.28125 257.683594 495.28125 " fill-opacity="1" fill-rule="nonzero"/></g><g clip-path="url(#0796b2415a)"><path fill="#9fff25" d="M -221.785156 191.1875 L -221.785156 304.273438 L 177.585938 304.273438 L 177.585938 191.1875 L -221.785156 191.1875 " fill-opacity="1" fill-rule="nonzero"/></g><path fill="#9fff25" d="M 470.660156 191.1875 L 470.660156 304.273438 L 473.339844 304.273438 C 504.5625 304.273438 529.875 278.960938 529.875 247.730469 C 529.875 216.5 504.5625 191.1875 473.339844 191.1875 L 470.660156 191.1875 " fill-opacity="1" fill-rule="nonzero"/></g></g></g><path fill="#9fff25" d="M 138.546875 767.382812 C 107.328125 767.382812 82.011719 742.066406 82.011719 710.839844 L 82.011719 426.621094 C 82.011719 395.394531 107.328125 370.078125 138.546875 370.078125 C 169.777344 370.078125 195.089844 395.394531 195.089844 426.621094 L 195.089844 710.839844 C 195.089844 742.066406 169.777344 767.382812 138.546875 767.382812 " fill-opacity="1" fill-rule="nonzero"/><g clip-path="url(#8f682653b3)"><path fill="#9fff25" d="M 273.308594 816.28125 C 242.085938 816.28125 216.773438 790.96875 216.773438 759.738281 L 216.773438 377.722656 C 216.773438 346.492188 242.085938 321.179688 273.308594 321.179688 C 304.535156 321.179688 329.851562 346.492188 329.851562 377.722656 L 329.851562 759.738281 C 329.851562 790.96875 304.535156 816.28125 273.308594 816.28125 " fill-opacity="1" fill-rule="nonzero"/></g><g clip-path="url(#7bae6e156c)"><path fill="#9fff25" d="M 752.777344 512.1875 L 752.777344 625.273438 L 353.402344 625.273438 L 353.402344 512.1875 L 752.777344 512.1875 " fill-opacity="1" fill-rule="nonzero"/></g><path fill="#9fff25" d="M 60.332031 512.1875 L 60.332031 625.273438 L 57.648438 625.273438 C 26.425781 625.273438 1.113281 599.960938 1.113281 568.730469 C 1.113281 537.5 26.425781 512.1875 57.648438 512.1875 L 60.332031 512.1875 " fill-opacity="1" fill-rule="nonzero"/></svg>