<svg xmlns="http://www.w3.org/2000/svg" xmlns:xlink="http://www.w3.org/1999/xlink" width="2000" zoomAndPan="magnify" viewBox="0 0 1500 1499.999933" height="2000" preserveAspectRatio="xMidYMid meet" version="1.0"><defs><g/><clipPath id="0b9771df9d"><path d="M 705.507812 347.308594 L 1094.757812 347.308594 L 1094.757812 711.058594 L 705.507812 711.058594 Z M 705.507812 347.308594 " clip-rule="nonzero"/></clipPath><clipPath id="f191492613"><path d="M 147 0.308594 L 231 0.308594 L 231 364.058594 L 147 364.058594 Z M 147 0.308594 " clip-rule="nonzero"/></clipPath><clipPath id="946b2ef2f5"><path d="M 0.507812 140 L 131 140 L 131 224 L 0.507812 224 Z M 0.507812 140 " clip-rule="nonzero"/></clipPath><clipPath id="67816f6dff"><path d="M 345 140 L 389.160156 140 L 389.160156 224 L 345 224 Z M 345 140 " clip-rule="nonzero"/></clipPath><clipPath id="8e2e12c0cf"><rect x="0" width="390" y="0" height="365"/></clipPath><clipPath id="91f854cf59"><path d="M 152 347.308594 L 236 347.308594 L 236 711.058594 L 152 711.058594 Z M 152 347.308594 " clip-rule="nonzero"/></clipPath><clipPath id="9a728ef449"><path d="M 252 487 L 382.1875 487 L 382.1875 571 L 252 571 Z M 252 487 " clip-rule="nonzero"/></clipPath></defs><g fill="#9fff25" fill-opacity="1"><g transform="translate(311.146852, 902.288398)"><g><path d="M 233.109375 -235.40625 L 394.234375 -414.8125 L 419.953125 -414.8125 L 419.953125 0 L 337.109375 0 L 337.671875 -227.96875 L 233.109375 -118.265625 L 128.5625 -227.96875 L 128.5625 0 L 45.703125 0 L 45.703125 -414.8125 L 71.984375 -414.8125 Z M 233.109375 -235.40625 "/></g></g></g><g fill="#9fff25" fill-opacity="1"><g transform="translate(749.999969, 902.138398)"><g><path d="M 36.78125 -51.484375 C 44.132812 -51.484375 49.984375 -49.644531 54.328125 -45.96875 C 58.671875 -42.289062 61.566406 -37.832031 63.015625 -32.59375 C 64.460938 -27.351562 64.40625 -22.054688 62.84375 -16.703125 C 61.289062 -11.359375 58.335938 -6.847656 53.984375 -3.171875 C 49.640625 0.503906 43.90625 2.34375 36.78125 2.34375 C 29.644531 2.34375 23.898438 0.503906 19.546875 -3.171875 C 15.203125 -6.847656 12.304688 -11.304688 10.859375 -16.546875 C 9.410156 -21.785156 9.410156 -27.078125 10.859375 -32.421875 C 12.304688 -37.773438 15.203125 -42.289062 19.546875 -45.96875 C 23.898438 -49.644531 29.644531 -51.484375 36.78125 -51.484375 Z M 36.78125 -51.484375 "/></g></g></g><g fill="#9fff25" fill-opacity="1"><g transform="translate(911.347923, 900.259054)"><g><path d="M 84.625 -85.453125 L 143.109375 -150.578125 L 152.4375 -150.578125 L 152.4375 0 L 122.375 0 L 122.578125 -82.75 L 84.625 -42.9375 L 46.671875 -82.75 L 46.671875 0 L 16.59375 0 L 16.59375 -150.578125 L 26.140625 -150.578125 Z M 84.625 -85.453125 "/></g></g></g><g fill="#9fff25" fill-opacity="1"><g transform="translate(1080.590096, 900.259054)"><g><path d="M 87.9375 2.078125 C 75.21875 2.078125 64.050781 -0.0625 54.4375 -4.34375 C 44.832031 -8.632812 36.847656 -14.410156 30.484375 -21.671875 C 24.128906 -28.929688 19.359375 -37.125 16.171875 -46.25 C 12.992188 -55.375 11.40625 -64.738281 11.40625 -74.34375 C 11.40625 -83.957031 12.992188 -93.328125 16.171875 -102.453125 C 19.359375 -111.578125 24.128906 -119.769531 30.484375 -127.03125 C 36.847656 -134.289062 44.832031 -140.0625 54.4375 -144.34375 C 64.050781 -148.632812 75.21875 -150.78125 87.9375 -150.78125 C 100.65625 -150.78125 111.816406 -148.632812 121.421875 -144.34375 C 131.035156 -140.0625 139.023438 -134.289062 145.390625 -127.03125 C 151.753906 -119.769531 156.523438 -111.578125 159.703125 -102.453125 C 162.878906 -93.328125 164.46875 -83.957031 164.46875 -74.34375 C 164.46875 -64.738281 162.878906 -55.375 159.703125 -46.25 C 156.523438 -37.125 151.753906 -28.929688 145.390625 -21.671875 C 139.023438 -14.410156 131.035156 -8.632812 121.421875 -4.34375 C 111.816406 -0.0625 100.65625 2.078125 87.9375 2.078125 Z M 87.9375 -28.625 C 96.375 -28.625 103.632812 -30.28125 109.71875 -33.59375 C 115.800781 -36.914062 120.640625 -41.304688 124.234375 -46.765625 C 127.828125 -52.234375 130.242188 -58.210938 131.484375 -64.703125 C 132.734375 -71.203125 132.734375 -77.703125 131.484375 -84.203125 C 130.242188 -90.703125 127.828125 -96.679688 124.234375 -102.140625 C 120.640625 -107.609375 115.800781 -112 109.71875 -115.3125 C 103.632812 -118.632812 96.375 -120.296875 87.9375 -120.296875 C 79.5 -120.296875 72.238281 -118.632812 66.15625 -115.3125 C 60.070312 -112 55.234375 -107.609375 51.640625 -102.140625 C 48.046875 -96.679688 45.625 -90.703125 44.375 -84.203125 C 43.132812 -77.703125 43.132812 -71.203125 44.375 -64.703125 C 45.625 -58.210938 48.046875 -52.234375 51.640625 -46.765625 C 55.234375 -41.304688 60.070312 -36.914062 66.15625 -33.59375 C 72.238281 -30.28125 79.5 -28.625 87.9375 -28.625 Z M 87.9375 -28.625 "/></g></g></g><g fill="#9fff25" fill-opacity="1"><g transform="translate(1256.261786, 900.259054)"><g><path d="M 62.640625 3.109375 L 1.25 -148.296875 L 35.46875 -148.296875 L 55.171875 -98.9375 L 65.953125 -68.234375 L 76.53125 -97.890625 L 96.4375 -148.296875 L 130.671875 -148.296875 L 69.28125 3.109375 Z M 62.640625 3.109375 "/></g></g></g><g fill="#9fff25" fill-opacity="1"><g transform="translate(1388.378549, 900.259054)"><g><path d="M 93.328125 0 L 16.59375 0 L 16.59375 -148.296875 L 90.84375 -148.296875 L 90.84375 -118.640625 L 46.25 -118.640625 L 46.25 -88.984375 L 85.25 -88.984375 L 85.25 -59.3125 L 46.25 -59.3125 L 46.25 -29.65625 L 93.328125 -29.65625 Z M 93.328125 0 "/></g></g></g><g clip-path="url(#0b9771df9d)"><g transform="matrix(1, 0, 0, 1, 705, 347)"><g clip-path="url(#8e2e12c0cf)"><path fill="#9fff25" d="M 288.1875 328.097656 C 311.125 328.097656 329.722656 309.5 329.722656 286.554688 L 329.722656 77.746094 C 329.722656 54.800781 311.125 36.203125 288.1875 36.203125 C 265.242188 36.203125 246.644531 54.800781 246.644531 77.746094 L 246.644531 286.554688 C 246.644531 309.5 265.242188 328.097656 288.1875 328.097656 " fill-opacity="1" fill-rule="nonzero"/><g clip-path="url(#f191492613)"><path fill="#9fff25" d="M 189.179688 364.023438 C 212.117188 364.023438 230.714844 345.425781 230.714844 322.480469 L 230.714844 41.816406 C 230.714844 18.871094 212.117188 0.277344 189.179688 0.277344 C 166.238281 0.277344 147.640625 18.871094 147.640625 41.816406 L 147.640625 322.480469 C 147.640625 345.425781 166.238281 364.023438 189.179688 364.023438 " fill-opacity="1" fill-rule="nonzero"/></g><g clip-path="url(#946b2ef2f5)"><path fill="#9fff25" d="M -163.078125 140.609375 L -163.078125 223.691406 L 130.335938 223.691406 L 130.335938 140.609375 L -163.078125 140.609375 " fill-opacity="1" fill-rule="nonzero"/></g><g clip-path="url(#67816f6dff)"><path fill="#9fff25" d="M 345.652344 140.609375 L 345.652344 223.691406 L 347.621094 223.691406 C 370.558594 223.691406 389.15625 205.09375 389.15625 182.148438 C 389.15625 159.207031 370.558594 140.609375 347.621094 140.609375 L 345.652344 140.609375 " fill-opacity="1" fill-rule="nonzero"/></g></g></g></g><path fill="#9fff25" d="M 94.730469 675.097656 C 71.792969 675.097656 53.195312 656.5 53.195312 633.554688 L 53.195312 424.746094 C 53.195312 401.800781 71.792969 383.203125 94.730469 383.203125 C 117.675781 383.203125 136.273438 401.800781 136.273438 424.746094 L 136.273438 633.554688 C 136.273438 656.5 117.675781 675.097656 94.730469 675.097656 " fill-opacity="1" fill-rule="nonzero"/><g clip-path="url(#91f854cf59)"><path fill="#9fff25" d="M 193.738281 711.023438 C 170.800781 711.023438 152.203125 692.425781 152.203125 669.480469 L 152.203125 388.816406 C 152.203125 365.871094 170.800781 347.277344 193.738281 347.277344 C 216.679688 347.277344 235.277344 365.871094 235.277344 388.816406 L 235.277344 669.480469 C 235.277344 692.425781 216.679688 711.023438 193.738281 711.023438 " fill-opacity="1" fill-rule="nonzero"/></g><g clip-path="url(#9a728ef449)"><path fill="#9fff25" d="M 545.996094 487.609375 L 545.996094 570.691406 L 252.582031 570.691406 L 252.582031 487.609375 L 545.996094 487.609375 " fill-opacity="1" fill-rule="nonzero"/></g><path fill="#9fff25" d="M 37.265625 487.609375 L 37.265625 570.691406 L 35.292969 570.691406 C 12.355469 570.691406 -6.242188 552.09375 -6.242188 529.148438 C -6.242188 506.207031 12.355469 487.609375 35.292969 487.609375 L 37.265625 487.609375 " fill-opacity="1" fill-rule="nonzero"/></svg>